<?xml version="1.0" encoding="UTF-8" standalone="no"?>
<!-- Created with Inkscape (http://www.inkscape.org/) -->

<svg
   width="54mm"
   height="76mm"
   viewBox="0 0 54 76"
   version="1.1"
   id="svg1"
   inkscape:version="1.3 (0e150ed6c4, 2023-07-21)"
   sodipodi:docname="sticker-a8-flyeralarm.svg"
   xmlns:inkscape="http://www.inkscape.org/namespaces/inkscape"
   xmlns:sodipodi="http://sodipodi.sourceforge.net/DTD/sodipodi-0.dtd"
   xmlns="http://www.w3.org/2000/svg"
   xmlns:svg="http://www.w3.org/2000/svg">
  <sodipodi:namedview
     id="namedview1"
     pagecolor="#505050"
     bordercolor="#eeeeee"
     borderopacity="1"
     inkscape:showpageshadow="0"
     inkscape:pageopacity="0"
     inkscape:pagecheckerboard="0"
     inkscape:deskcolor="#d1d1d1"
     inkscape:document-units="mm"
     inkscape:zoom="2.1862647"
     inkscape:cx="181.81696"
     inkscape:cy="302.34216"
     inkscape:window-width="1904"
     inkscape:window-height="2116"
     inkscape:window-x="4084"
     inkscape:window-y="22"
     inkscape:window-maximized="0"
     inkscape:current-layer="layer1" />
  <defs
     id="defs1" />
  <g
     inkscape:label="Layer 1"
     inkscape:groupmode="layer"
     id="layer1">
    <g
       id="bg"
       transform="scale(0.35277747)">
      <path
         d="M 0,0 H 153.071 V 215.433 H 0 Z"
         fill="#ffffff"
         id="path1" />
    </g>
    <g
       id="all"
       transform="matrix(0.33971163,0,0,0.34349428,0.99999977,0.99999879)">
      <g
         id="pytest-logo">
        <path
           d="m 55.076,130.603 h 42.919 c 1.162,0 2.104,0.942 2.104,2.104 v 0 c 0,1.162 -0.942,2.103 -2.104,2.103 H 55.076 c -1.162,0 -2.104,-0.941 -2.104,-2.103 v 0 c 0,-1.162 0.942,-2.104 2.104,-2.104 z"
           fill="#696969"
           id="horizontal_bar" />
        <g
           id="top_bars">
          <path
             d="m 55.45,126.347 h 8.629 v 1.991 H 55.45 Z"
             fill="#009fe3"
             id="path2" />
          <path
             d="m 66.735,126.347 h 8.629 v 1.991 h -8.629 z"
             fill="#c7d302"
             id="path3" />
          <path
             d="m 77.87,126.347 h 8.63 v 1.991 h -8.63 z"
             fill="#f07e16"
             id="path4" />
          <path
             d="m 88.958,126.347 h 8.63 v 1.991 h -8.63 z"
             fill="#df2815"
             id="path5" />
        </g>
        <g
           id="bottom_bars">
          <path
             d="m 88.958,137.001 h 8.63 v 14.587 h -8.63 z"
             fill="#df2815"
             id="path6" />
          <path
             d="m 77.87,137.001 h 8.646 v 23.698 H 77.87 Z"
             fill="#f07e16"
             id="path7" />
          <path
             d="m 66.735,137.001 h 8.629 v 35.497 h -8.629 z"
             fill="#c7d302"
             id="path8" />
          <path
             d="m 55.45,137.001 h 8.629 v 43.264 H 55.45 Z"
             fill="#009fe3"
             id="path9" />
        </g>
      </g>
      <g
         id="pytest">
        <path
           d="m 59.328,194.726 q -0.461,0 -0.836,-0.101 -0.375,-0.102 -0.676,-0.27 -0.301,-0.168 -0.531,-0.395 -0.231,-0.226 -0.411,-0.476 H 56.78 q 0.024,0.265 0.047,0.508 0.016,0.203 0.032,0.418 0.015,0.215 0.015,0.34 v 3.665 H 55.452 V 185.99 h 1.157 l 0.203,1.156 h 0.062 q 0.18,-0.273 0.407,-0.512 0.226,-0.238 0.527,-0.414 0.301,-0.176 0.676,-0.281 0.375,-0.106 0.844,-0.106 0.735,0 1.336,0.282 0.602,0.281 1.028,0.84 0.426,0.558 0.66,1.387 0.235,0.828 0.235,1.922 0,1.102 -0.235,1.934 -0.234,0.832 -0.66,1.395 -0.426,0.563 -1.028,0.848 -0.601,0.285 -1.336,0.285 z m -0.274,-7.713 q -0.593,0 -1.004,0.18 -0.41,0.18 -0.664,0.547 -0.254,0.367 -0.375,0.914 -0.121,0.547 -0.137,1.29 v 0.32 q 0,0.789 0.106,1.403 0.105,0.613 0.359,1.031 0.254,0.418 0.676,0.633 0.422,0.215 1.055,0.215 1.055,0 1.551,-0.852 0.497,-0.851 0.497,-2.445 0,-1.626 -0.497,-2.431 -0.496,-0.805 -1.567,-0.805 z"
           fill="#696969"
           id="path10" />
        <path
           d="m 63.548,185.99 h 1.477 l 1.68,4.79 q 0.109,0.312 0.223,0.656 0.113,0.344 0.211,0.688 0.097,0.344 0.168,0.664 0.07,0.321 0.101,0.594 h 0.047 q 0.039,-0.195 0.125,-0.531 0.086,-0.336 0.192,-0.715 0.105,-0.379 0.218,-0.747 0.114,-0.367 0.2,-0.625 l 1.555,-4.774 h 1.469 l -3.392,9.697 q -0.218,0.633 -0.472,1.137 -0.254,0.504 -0.59,0.856 -0.336,0.352 -0.79,0.543 -0.453,0.192 -1.078,0.192 -0.406,0 -0.703,-0.043 -0.297,-0.043 -0.508,-0.09 v -1.133 q 0.164,0.039 0.414,0.066 0.25,0.027 0.523,0.027 0.375,0 0.649,-0.089 0.273,-0.09 0.477,-0.262 0.203,-0.172 0.347,-0.422 0.145,-0.25 0.262,-0.571 l 0.446,-1.25 z"
           fill="#696969"
           id="path11" />
        <path
           d="m 75.246,193.562 q 0.141,0 0.317,-0.016 0.175,-0.015 0.339,-0.039 0.165,-0.023 0.301,-0.055 0.137,-0.031 0.207,-0.054 v 1.078 q -0.101,0.047 -0.257,0.094 -0.157,0.047 -0.344,0.082 -0.188,0.035 -0.391,0.055 -0.203,0.019 -0.399,0.019 -0.484,0 -0.898,-0.125 -0.414,-0.125 -0.715,-0.43 -0.301,-0.304 -0.473,-0.824 -0.172,-0.52 -0.172,-1.309 V 187.06 H 71.55 v -0.633 l 1.211,-0.609 0.61,-1.798 h 0.82 v 1.97 h 2.157 v 1.07 h -2.157 v 4.978 q 0,0.758 0.246,1.141 0.246,0.383 0.809,0.383 z"
           fill="#009fe3"
           id="path12" />
        <path
           d="m 81.466,194.726 q -0.859,0 -1.57,-0.289 -0.711,-0.289 -1.223,-0.844 -0.512,-0.555 -0.793,-1.375 -0.282,-0.821 -0.282,-1.876 0,-1.062 0.258,-1.899 0.258,-0.836 0.727,-1.418 0.469,-0.582 1.121,-0.887 0.653,-0.305 1.442,-0.305 0.774,0 1.391,0.278 0.617,0.277 1.047,0.781 0.43,0.504 0.66,1.211 0.231,0.708 0.231,1.567 v 0.883 h -5.408 q 0.039,1.508 0.637,2.22 0.598,0.711 1.778,0.711 0.399,0 0.738,-0.039 0.34,-0.039 0.657,-0.114 0.316,-0.074 0.613,-0.187 0.297,-0.114 0.602,-0.254 v 1.266 q -0.313,0.148 -0.613,0.258 -0.301,0.109 -0.618,0.179 -0.316,0.071 -0.656,0.102 -0.34,0.031 -0.739,0.031 z m -0.351,-7.713 q -0.891,0 -1.411,0.61 -0.519,0.609 -0.605,1.774 h 3.844 q 0,-0.532 -0.105,-0.973 -0.106,-0.442 -0.328,-0.754 -0.223,-0.313 -0.567,-0.485 -0.344,-0.172 -0.828,-0.172 z"
           fill="#009fe3"
           id="path13" />
        <path
           d="m 91.774,192.218 q 0,0.625 -0.227,1.094 -0.227,0.469 -0.652,0.785 -0.426,0.317 -1.028,0.473 -0.602,0.156 -1.352,0.156 -0.852,0 -1.461,-0.137 -0.61,-0.136 -1.071,-0.402 v -1.297 q 0.242,0.125 0.539,0.246 0.297,0.121 0.625,0.215 0.329,0.094 0.676,0.152 0.348,0.059 0.692,0.059 0.508,0 0.864,-0.086 0.355,-0.086 0.578,-0.246 0.222,-0.16 0.324,-0.391 0.102,-0.231 0.102,-0.512 0,-0.242 -0.078,-0.437 -0.079,-0.196 -0.286,-0.387 -0.207,-0.192 -0.566,-0.387 -0.36,-0.195 -0.922,-0.438 -0.563,-0.242 -1.012,-0.476 -0.45,-0.235 -0.762,-0.524 -0.313,-0.289 -0.481,-0.668 -0.168,-0.379 -0.168,-0.903 0,-0.547 0.215,-0.973 0.215,-0.425 0.606,-0.715 0.39,-0.289 0.937,-0.437 0.547,-0.149 1.219,-0.149 0.758,0 1.388,0.164 0.629,0.165 1.191,0.43 l -0.492,1.149 q -0.508,-0.227 -1.043,-0.395 -0.536,-0.168 -1.09,-0.168 -0.798,0 -1.18,0.262 -0.383,0.262 -0.383,0.746 0,0.274 0.09,0.477 0.089,0.203 0.308,0.383 0.219,0.18 0.586,0.363 0.368,0.184 0.915,0.411 0.562,0.234 1.004,0.468 0.441,0.235 0.754,0.528 0.312,0.293 0.477,0.668 0.164,0.375 0.164,0.899 z"
           fill="#009fe3"
           id="path14" />
        <path
           d="m 96.454,193.562 q 0.141,0 0.317,-0.016 0.176,-0.015 0.34,-0.039 0.164,-0.023 0.301,-0.055 0.137,-0.031 0.207,-0.054 v 1.078 q -0.102,0.047 -0.258,0.094 -0.156,0.047 -0.344,0.082 -0.187,0.035 -0.391,0.055 -0.203,0.019 -0.398,0.019 -0.485,0 -0.899,-0.125 -0.414,-0.125 -0.715,-0.43 -0.301,-0.304 -0.473,-0.824 -0.172,-0.52 -0.172,-1.309 v -4.978 h -1.211 v -0.633 l 1.211,-0.609 0.61,-1.798 H 95.4 v 1.97 h 2.156 v 1.07 H 95.4 v 4.978 q 0,0.758 0.246,1.141 0.246,0.383 0.808,0.383 z"
           fill="#009fe3"
           id="path15" />
      </g>
      <g
         id="reverts">
        <path
           d="M 19.637,100.706 V 86.525 h 2.378 l 0.232,3.306 h 0.087 q 1.102,-1.74 2.683,-2.697 1.58,-0.957 3.494,-0.957 0.841,0 1.479,0.131 0.638,0.13 1.305,0.449 l -0.638,2.465 q -0.725,-0.232 -1.247,-0.348 -0.522,-0.116 -1.334,-0.116 -1.537,0 -2.958,0.87 -1.421,0.87 -2.61,3.016 v 8.062 z"
           fill="#df2815"
           id="path16" />
        <path
           d="m 42.605,101.054 q -1.624,0 -3.016,-0.493 -1.392,-0.493 -2.436,-1.45 -1.044,-0.957 -1.638,-2.349 -0.595,-1.392 -0.595,-3.161 0,-1.74 0.609,-3.117 0.609,-1.378 1.61,-2.335 1,-0.957 2.305,-1.464 1.305,-0.508 2.726,-0.508 1.566,0 2.784,0.493 1.218,0.493 2.045,1.378 0.826,0.884 1.261,2.117 0.435,1.232 0.435,2.711 0,0.464 -0.029,0.87 -0.029,0.406 -0.087,0.696 H 37.791 q 0.232,2.204 1.668,3.277 1.435,1.073 3.523,1.073 1.189,0 2.175,-0.333 0.986,-0.334 1.943,-0.914 l 1.015,1.827 q -1.102,0.725 -2.479,1.204 -1.378,0.478 -3.031,0.478 z M 42.257,88.439 q -0.812,0 -1.537,0.247 -0.725,0.246 -1.305,0.739 -0.58,0.493 -0.986,1.218 -0.406,0.725 -0.58,1.682 h 8.265 Q 45.969,90.382 44.94,89.411 43.91,88.439 42.257,88.439 Z"
           fill="#df2815"
           id="path17" />
        <path
           d="m 57.569,100.706 -5.8,-14.181 h 2.9 l 2.987,7.714 q 0.406,1.073 0.769,2.117 0.362,1.044 0.739,2.088 h 0.116 q 0.377,-1.044 0.725,-2.088 0.348,-1.044 0.754,-2.117 l 2.987,-7.714 h 2.755 l -5.684,14.181 z"
           fill="#df2815"
           id="path18" />
        <path
           d="m 77.405,101.054 q -1.624,0 -3.016,-0.493 -1.392,-0.493 -2.436,-1.45 -1.044,-0.957 -1.638,-2.349 -0.595,-1.392 -0.595,-3.161 0,-1.74 0.609,-3.117 0.609,-1.378 1.61,-2.335 1,-0.957 2.305,-1.464 1.305,-0.508 2.726,-0.508 1.566,0 2.784,0.493 1.218,0.493 2.045,1.378 0.826,0.884 1.261,2.117 0.435,1.232 0.435,2.711 0,0.464 -0.029,0.87 -0.029,0.406 -0.087,0.696 H 72.591 q 0.232,2.204 1.668,3.277 1.435,1.073 3.523,1.073 1.189,0 2.175,-0.333 0.986,-0.334 1.943,-0.914 l 1.015,1.827 q -1.102,0.725 -2.479,1.204 -1.378,0.478 -3.031,0.478 z M 77.057,88.439 q -0.812,0 -1.537,0.247 -0.725,0.246 -1.305,0.739 -0.58,0.493 -0.986,1.218 -0.406,0.725 -0.58,1.682 h 8.265 Q 80.769,90.382 79.74,89.411 78.71,88.439 77.057,88.439 Z"
           fill="#df2815"
           id="path19" />
        <path
           d="M 89.237,100.706 V 86.525 h 2.378 l 0.232,3.306 h 0.087 q 1.102,-1.74 2.683,-2.697 1.58,-0.957 3.494,-0.957 0.841,0 1.479,0.131 0.638,0.13 1.305,0.449 l -0.638,2.465 q -0.725,-0.232 -1.247,-0.348 -0.522,-0.116 -1.334,-0.116 -1.537,0 -2.958,0.87 -1.421,0.87 -2.61,3.016 v 8.062 z"
           fill="#df2815"
           id="path20" />
        <path
           d="m 114.003,101.054 q -1.566,0 -2.653,-0.435 -1.088,-0.435 -1.74,-1.218 -0.653,-0.783 -0.943,-1.87 -0.29,-1.088 -0.29,-2.422 v -6.264 h -3.886 V 86.67 l 4.002,-0.145 0.377,-4.495 h 2.378 v 4.495 h 6.699 v 2.32 h -6.699 v 6.264 q 0,1.827 0.74,2.726 0.739,0.899 2.682,0.899 0.928,0 1.711,-0.159 0.783,-0.16 1.537,-0.45 l 0.58,2.117 q -0.957,0.319 -2.03,0.566 -1.073,0.246 -2.465,0.246 z"
           fill="#df2815"
           id="path21" />
        <path
           d="m 128.909,101.054 q -2.03,0 -3.828,-0.652 -1.798,-0.653 -3.103,-1.552 l 1.276,-1.856 q 1.247,0.87 2.712,1.363 1.464,0.493 3.32,0.493 1.653,0 2.436,-0.565 0.783,-0.566 0.783,-1.378 0,-0.377 -0.145,-0.696 -0.145,-0.319 -0.594,-0.594 -0.45,-0.276 -1.262,-0.537 -0.812,-0.261 -2.146,-0.551 -2.813,-0.58 -4.161,-1.58 -1.349,-1.001 -1.349,-2.625 0,-0.899 0.392,-1.653 0.391,-0.754 1.16,-1.305 0.768,-0.551 1.899,-0.87 1.131,-0.319 2.61,-0.319 1.682,0 3.205,0.566 1.522,0.565 2.595,1.29 l -1.334,1.798 q -1.015,-0.667 -2.218,-1.058 -1.204,-0.392 -2.509,-0.392 -1.624,0 -2.276,0.522 -0.653,0.522 -0.653,1.276 0,0.841 0.899,1.276 0.899,0.435 2.987,0.87 1.74,0.377 2.857,0.812 1.116,0.435 1.769,0.957 0.652,0.522 0.913,1.175 0.261,0.652 0.261,1.464 0,0.899 -0.435,1.682 -0.435,0.783 -1.261,1.378 -0.827,0.594 -2.03,0.928 -1.204,0.333 -2.77,0.333 z"
           fill="#df2815"
           id="path22" />
      </g>
      <g
         id="before">
        <path
           d="m 33.76,71.454 q -1.015,0 -2.16,-0.493 -1.146,-0.493 -2.103,-1.421 H 29.41 l -0.261,1.566 H 26.887 V 50.545 h 2.871 v 5.452 l -0.116,2.61 h 0.087 q 0.928,-0.928 2.117,-1.479 1.189,-0.551 2.407,-0.551 1.392,0 2.494,0.508 1.102,0.507 1.842,1.45 0.739,0.942 1.131,2.276 0.391,1.334 0.391,2.987 0,1.827 -0.522,3.248 -0.522,1.421 -1.406,2.393 -0.885,0.971 -2.03,1.493 -1.146,0.522 -2.393,0.522 z m -0.551,-2.378 q 1.682,0 2.813,-1.348 1.131,-1.349 1.131,-3.901 0,-2.233 -0.87,-3.538 -0.87,-1.305 -2.784,-1.305 -0.87,0 -1.827,0.45 -0.957,0.449 -1.914,1.464 v 6.699 q 0.899,0.812 1.827,1.146 0.928,0.333 1.624,0.333 z"
           fill="#009fe3"
           id="path23" />
        <path
           d="m 51.305,71.454 q -1.624,0 -3.016,-0.493 -1.392,-0.493 -2.436,-1.45 -1.044,-0.957 -1.638,-2.349 -0.595,-1.392 -0.595,-3.161 0,-1.74 0.609,-3.117 0.609,-1.378 1.61,-2.335 1,-0.957 2.305,-1.464 1.305,-0.508 2.726,-0.508 1.566,0 2.784,0.493 1.218,0.493 2.045,1.378 0.826,0.884 1.261,2.117 0.435,1.232 0.435,2.711 0,0.464 -0.029,0.87 -0.029,0.406 -0.087,0.696 H 46.491 q 0.232,2.204 1.668,3.277 1.435,1.073 3.523,1.073 1.189,0 2.175,-0.333 0.986,-0.334 1.943,-0.914 l 1.015,1.827 q -1.102,0.725 -2.479,1.204 -1.378,0.478 -3.031,0.478 z M 50.957,58.839 q -0.812,0 -1.537,0.247 -0.725,0.246 -1.305,0.739 -0.58,0.493 -0.986,1.218 -0.406,0.725 -0.58,1.682 h 8.265 Q 54.669,60.782 53.64,59.811 52.61,58.839 50.957,58.839 Z"
           fill="#009fe3"
           id="path24" />
        <path
           d="M 65.95,71.106 V 59.245 H 61.977 V 57.07 l 3.973,-0.145 v -0.986 q 0,-1.276 0.348,-2.334 0.348,-1.059 1.073,-1.813 0.725,-0.754 1.827,-1.174 1.102,-0.421 2.61,-0.421 2.117,0 4.147,0.812 l -0.638,2.117 q -0.812,-0.348 -1.551,-0.493 -0.74,-0.145 -1.639,-0.145 -1.769,0 -2.552,0.885 -0.783,0.884 -0.783,2.508 v 1.044 h 5.655 v 2.32 h -5.655 v 11.861 z"
           fill="#009fe3"
           id="path25" />
        <path
           d="m 85.235,71.454 q -1.392,0 -2.668,-0.493 -1.276,-0.493 -2.262,-1.45 -0.986,-0.957 -1.566,-2.334 -0.58,-1.378 -0.58,-3.147 0,-1.769 0.58,-3.161 0.58,-1.392 1.566,-2.349 0.986,-0.957 2.262,-1.45 1.276,-0.493 2.668,-0.493 1.392,0 2.668,0.493 1.276,0.493 2.262,1.45 0.986,0.957 1.566,2.349 0.58,1.392 0.58,3.161 0,1.769 -0.58,3.147 -0.58,1.377 -1.566,2.334 -0.986,0.957 -2.262,1.45 -1.276,0.493 -2.668,0.493 z m 0,-2.349 q 1.914,0 3.016,-1.392 1.102,-1.392 1.102,-3.683 0,-2.291 -1.102,-3.683 -1.102,-1.392 -3.016,-1.392 -1.914,0 -3.016,1.392 -1.102,1.392 -1.102,3.683 0,2.291 1.102,3.683 1.102,1.392 3.016,1.392 z"
           fill="#009fe3"
           id="path26" />
        <path
           d="M 97.937,71.106 V 56.925 h 2.378 l 0.232,3.306 h 0.087 q 1.102,-1.74 2.683,-2.697 1.58,-0.957 3.494,-0.957 0.841,0 1.479,0.131 0.638,0.13 1.305,0.449 l -0.638,2.465 q -0.725,-0.232 -1.247,-0.348 -0.522,-0.116 -1.334,-0.116 -1.537,0 -2.958,0.87 -1.421,0.87 -2.61,3.016 v 8.062 z"
           fill="#009fe3"
           id="path27" />
        <path
           d="m 120.905,71.454 q -1.624,0 -3.016,-0.493 -1.392,-0.493 -2.436,-1.45 -1.044,-0.957 -1.638,-2.349 -0.595,-1.392 -0.595,-3.161 0,-1.74 0.609,-3.117 0.609,-1.378 1.61,-2.335 1,-0.957 2.305,-1.464 1.305,-0.508 2.726,-0.508 1.566,0 2.784,0.493 1.218,0.493 2.045,1.378 0.826,0.884 1.261,2.117 0.435,1.232 0.435,2.711 0,0.464 -0.029,0.87 -0.029,0.406 -0.087,0.696 h -10.788 q 0.232,2.204 1.668,3.277 1.435,1.073 3.523,1.073 1.189,0 2.175,-0.333 0.986,-0.334 1.943,-0.914 l 1.015,1.827 q -1.102,0.725 -2.479,1.204 -1.378,0.478 -3.031,0.478 z m -0.348,-12.615 q -0.812,0 -1.537,0.247 -0.725,0.246 -1.305,0.739 -0.58,0.493 -0.986,1.218 -0.406,0.725 -0.58,1.682 h 8.265 q -0.145,-1.943 -1.174,-2.914 -1.03,-0.972 -2.683,-0.972 z"
           fill="#009fe3"
           id="path28" />
      </g>
      <g
         id="asserts">
        <path
           d="m 22.624,41.854 q -1.015,0 -1.899,-0.29 -0.885,-0.29 -1.523,-0.826 -0.638,-0.537 -1,-1.291 -0.363,-0.754 -0.363,-1.682 0,-1.189 0.566,-2.088 0.565,-0.899 1.769,-1.537 1.203,-0.638 3.103,-1.044 1.899,-0.406 4.567,-0.609 -0.058,-1.305 -0.855,-2.233 -0.798,-0.928 -2.683,-0.928 -1.305,0 -2.537,0.493 -1.233,0.493 -2.277,1.102 l -1.073,-1.943 q 0.58,-0.348 1.305,-0.71 0.725,-0.363 1.552,-0.653 0.826,-0.29 1.711,-0.464 0.884,-0.174 1.812,-0.174 2.958,0 4.437,1.595 1.479,1.595 1.479,4.408 v 8.526 h -2.349 l -0.232,-1.827 h -0.087 q -1.131,0.87 -2.537,1.523 -1.407,0.652 -2.886,0.652 z m 0.812,-2.291 q 1.131,0 2.219,-0.493 1.087,-0.493 2.189,-1.392 v -3.364 q -2.088,0.174 -3.48,0.45 -1.392,0.275 -2.218,0.696 -0.827,0.42 -1.175,0.942 -0.348,0.522 -0.348,1.16 0,1.073 0.827,1.537 0.826,0.464 1.986,0.464 z"
           fill="#c7d302"
           id="path29" />
        <path
           d="m 41.909,41.854 q -2.03,0 -3.828,-0.652 -1.798,-0.653 -3.103,-1.552 l 1.276,-1.856 q 1.247,0.87 2.712,1.363 1.464,0.493 3.32,0.493 1.653,0 2.436,-0.565 0.783,-0.566 0.783,-1.378 0,-0.377 -0.145,-0.696 -0.145,-0.319 -0.594,-0.594 -0.45,-0.276 -1.262,-0.537 -0.812,-0.261 -2.146,-0.551 -2.813,-0.58 -4.161,-1.58 -1.349,-1.001 -1.349,-2.625 0,-0.899 0.392,-1.653 0.391,-0.754 1.16,-1.305 0.768,-0.551 1.899,-0.87 1.131,-0.319 2.61,-0.319 1.682,0 3.205,0.566 1.522,0.565 2.595,1.29 l -1.334,1.798 q -1.015,-0.667 -2.218,-1.058 -1.204,-0.392 -2.509,-0.392 -1.624,0 -2.276,0.522 -0.653,0.522 -0.653,1.276 0,0.841 0.899,1.276 0.899,0.435 2.987,0.87 1.74,0.377 2.857,0.812 1.116,0.435 1.769,0.957 0.652,0.522 0.913,1.175 0.261,0.652 0.261,1.464 0,0.899 -0.435,1.682 -0.435,0.783 -1.261,1.378 -0.827,0.594 -2.03,0.928 -1.204,0.333 -2.77,0.333 z"
           fill="#c7d302"
           id="path30" />
        <path
           d="m 59.309,41.854 q -2.03,0 -3.828,-0.652 -1.798,-0.653 -3.103,-1.552 l 1.276,-1.856 q 1.247,0.87 2.712,1.363 1.464,0.493 3.32,0.493 1.653,0 2.436,-0.565 0.783,-0.566 0.783,-1.378 0,-0.377 -0.145,-0.696 -0.145,-0.319 -0.594,-0.594 -0.45,-0.276 -1.262,-0.537 -0.812,-0.261 -2.146,-0.551 -2.813,-0.58 -4.161,-1.58 -1.349,-1.001 -1.349,-2.625 0,-0.899 0.392,-1.653 0.391,-0.754 1.16,-1.305 0.768,-0.551 1.899,-0.87 1.131,-0.319 2.61,-0.319 1.682,0 3.205,0.566 1.522,0.565 2.595,1.29 l -1.334,1.798 q -1.015,-0.667 -2.218,-1.058 -1.204,-0.392 -2.509,-0.392 -1.624,0 -2.276,0.522 -0.653,0.522 -0.653,1.276 0,0.841 0.899,1.276 0.899,0.435 2.987,0.87 1.74,0.377 2.857,0.812 1.116,0.435 1.769,0.957 0.652,0.522 0.913,1.175 0.261,0.652 0.261,1.464 0,0.899 -0.435,1.682 -0.435,0.783 -1.261,1.378 -0.827,0.594 -2.03,0.928 -1.204,0.333 -2.77,0.333 z"
           fill="#c7d302"
           id="path31" />
        <path
           d="m 77.405,41.854 q -1.624,0 -3.016,-0.493 -1.392,-0.493 -2.436,-1.45 -1.044,-0.957 -1.638,-2.349 -0.595,-1.392 -0.595,-3.161 0,-1.74 0.609,-3.117 0.609,-1.378 1.61,-2.335 1,-0.957 2.305,-1.464 1.305,-0.508 2.726,-0.508 1.566,0 2.784,0.493 1.218,0.493 2.045,1.378 0.826,0.884 1.261,2.117 0.435,1.232 0.435,2.711 0,0.464 -0.029,0.87 -0.029,0.406 -0.087,0.696 H 72.591 q 0.232,2.204 1.668,3.277 1.435,1.073 3.523,1.073 1.189,0 2.175,-0.333 0.986,-0.334 1.943,-0.914 l 1.015,1.827 q -1.102,0.725 -2.479,1.204 -1.378,0.478 -3.031,0.478 z M 77.057,29.239 q -0.812,0 -1.537,0.247 -0.725,0.246 -1.305,0.739 -0.58,0.493 -0.986,1.218 -0.406,0.725 -0.58,1.682 h 8.265 Q 80.769,31.182 79.74,30.211 78.71,29.239 77.057,29.239 Z"
           fill="#c7d302"
           id="path32" />
        <path
           d="M 89.237,41.506 V 27.325 h 2.378 l 0.232,3.306 h 0.087 q 1.102,-1.74 2.683,-2.697 1.58,-0.957 3.494,-0.957 0.841,0 1.479,0.131 0.638,0.13 1.305,0.449 l -0.638,2.465 q -0.725,-0.232 -1.247,-0.348 -0.522,-0.116 -1.334,-0.116 -1.537,0 -2.958,0.87 -1.421,0.87 -2.61,3.016 v 8.062 z"
           fill="#c7d302"
           id="path33" />
        <path
           d="m 114.003,41.854 q -1.566,0 -2.653,-0.435 -1.088,-0.435 -1.74,-1.218 -0.653,-0.783 -0.943,-1.87 -0.29,-1.088 -0.29,-2.422 v -6.264 h -3.886 V 27.47 l 4.002,-0.145 0.377,-4.495 h 2.378 v 4.495 h 6.699 v 2.32 h -6.699 v 6.264 q 0,1.827 0.74,2.726 0.739,0.899 2.682,0.899 0.928,0 1.711,-0.159 0.783,-0.16 1.537,-0.45 l 0.58,2.117 q -0.957,0.319 -2.03,0.566 -1.073,0.246 -2.465,0.246 z"
           fill="#c7d302"
           id="path34" />
        <path
           d="m 128.909,41.854 q -2.03,0 -3.828,-0.652 -1.798,-0.653 -3.103,-1.552 l 1.276,-1.856 q 1.247,0.87 2.712,1.363 1.464,0.493 3.32,0.493 1.653,0 2.436,-0.565 0.783,-0.566 0.783,-1.378 0,-0.377 -0.145,-0.696 -0.145,-0.319 -0.594,-0.594 -0.45,-0.276 -1.262,-0.537 -0.812,-0.261 -2.146,-0.551 -2.813,-0.58 -4.161,-1.58 -1.349,-1.001 -1.349,-2.625 0,-0.899 0.392,-1.653 0.391,-0.754 1.16,-1.305 0.768,-0.551 1.899,-0.87 1.131,-0.319 2.61,-0.319 1.682,0 3.205,0.566 1.522,0.565 2.595,1.29 l -1.334,1.798 q -1.015,-0.667 -2.218,-1.058 -1.204,-0.392 -2.509,-0.392 -1.624,0 -2.276,0.522 -0.653,0.522 -0.653,1.276 0,0.841 0.899,1.276 0.899,0.435 2.987,0.87 1.74,0.377 2.857,0.812 1.116,0.435 1.769,0.957 0.652,0.522 0.913,1.175 0.261,0.652 0.261,1.464 0,0.899 -0.435,1.682 -0.435,0.783 -1.261,1.378 -0.827,0.594 -2.03,0.928 -1.204,0.333 -2.77,0.333 z"
           fill="#c7d302"
           id="path35" />
      </g>
    </g>
  </g>
</svg>
