<?xml version="1.0" encoding="UTF-8"?>
<!DOCTYPE svg PUBLIC "-//W3C//DTD SVG 1.1//EN" "http://www.w3.org/Graphics/SVG/1.1/DTD/svg11.dtd">
<svg version="1.1" xmlns="http://www.w3.org/2000/svg" xmlns:xlink="http://www.w3.org/1999/xlink" x="0" y="0" width="153.071" height="215.433" viewBox="0, 0, 153.071, 215.433">
  <g id="bg">
    <path d="M0,-0 L153.071,-0 L153.071,215.433 L0,215.433 L0,-0 z" fill="#FFFFFF"/>
  </g>
  <g id="all">
    <g id="pytest-logo">
      <path d="M55.076,130.603 L97.995,130.603 C99.157,130.603 100.099,131.545 100.099,132.707 L100.099,132.707 C100.099,133.869 99.157,134.81 97.995,134.81 L55.076,134.81 C53.914,134.81 52.972,133.869 52.972,132.707 L52.972,132.707 C52.972,131.545 53.914,130.603 55.076,130.603 z" fill="#696969" id="horizontal_bar"/>
      <g id="top_bars">
        <path d="M55.45,126.347 L64.079,126.347 L64.079,128.338 L55.45,128.338 L55.45,126.347 z" fill="#009FE3"/>
        <path d="M66.735,126.347 L75.364,126.347 L75.364,128.338 L66.735,128.338 L66.735,126.347 z" fill="#C7D302"/>
        <path d="M77.87,126.347 L86.5,126.347 L86.5,128.338 L77.87,128.338 L77.87,126.347 z" fill="#F07E16"/>
        <path d="M88.958,126.347 L97.588,126.347 L97.588,128.338 L88.958,128.338 L88.958,126.347 z" fill="#DF2815"/>
      </g>
      <g id="bottom_bars">
        <path d="M88.958,137.001 L97.588,137.001 L97.588,151.588 L88.958,151.588 L88.958,137.001 z" fill="#DF2815"/>
        <path d="M77.87,137.001 L86.516,137.001 L86.516,160.699 L77.87,160.699 L77.87,137.001 z" fill="#F07E16"/>
        <path d="M66.735,137.001 L75.364,137.001 L75.364,172.498 L66.735,172.498 L66.735,137.001 z" fill="#C7D302"/>
        <path d="M55.45,137.001 L64.079,137.001 L64.079,180.265 L55.45,180.265 L55.45,137.001 z" fill="#009FE3"/>
      </g>
    </g>
    <g id="pytest">
      <path d="M59.328,194.726 Q58.867,194.726 58.492,194.625 Q58.117,194.523 57.816,194.355 Q57.515,194.187 57.285,193.96 Q57.054,193.734 56.874,193.484 L56.78,193.484 Q56.804,193.749 56.827,193.992 Q56.843,194.195 56.859,194.41 Q56.874,194.625 56.874,194.75 L56.874,198.415 L55.452,198.415 L55.452,185.99 L56.609,185.99 L56.812,187.146 L56.874,187.146 Q57.054,186.873 57.281,186.634 Q57.507,186.396 57.808,186.22 Q58.109,186.044 58.484,185.939 Q58.859,185.833 59.328,185.833 Q60.063,185.833 60.664,186.115 Q61.266,186.396 61.692,186.955 Q62.118,187.513 62.352,188.342 Q62.587,189.17 62.587,190.264 Q62.587,191.366 62.352,192.198 Q62.118,193.03 61.692,193.593 Q61.266,194.156 60.664,194.441 Q60.063,194.726 59.328,194.726 z M59.054,187.013 Q58.461,187.013 58.05,187.193 Q57.64,187.373 57.386,187.74 Q57.132,188.107 57.011,188.654 Q56.89,189.201 56.874,189.944 L56.874,190.264 Q56.874,191.053 56.98,191.667 Q57.085,192.28 57.339,192.698 Q57.593,193.116 58.015,193.331 Q58.437,193.546 59.07,193.546 Q60.125,193.546 60.621,192.694 Q61.118,191.843 61.118,190.249 Q61.118,188.623 60.621,187.818 Q60.125,187.013 59.054,187.013 z" fill="#696969"/>
      <path d="M63.548,185.99 L65.025,185.99 L66.705,190.78 Q66.814,191.092 66.928,191.436 Q67.041,191.78 67.139,192.124 Q67.236,192.468 67.307,192.788 Q67.377,193.109 67.408,193.382 L67.455,193.382 Q67.494,193.187 67.58,192.851 Q67.666,192.515 67.772,192.136 Q67.877,191.757 67.99,191.389 Q68.104,191.022 68.19,190.764 L69.745,185.99 L71.214,185.99 L67.822,195.687 Q67.604,196.32 67.35,196.824 Q67.096,197.328 66.76,197.68 Q66.424,198.032 65.97,198.223 Q65.517,198.415 64.892,198.415 Q64.486,198.415 64.189,198.372 Q63.892,198.329 63.681,198.282 L63.681,197.149 Q63.845,197.188 64.095,197.215 Q64.345,197.242 64.618,197.242 Q64.993,197.242 65.267,197.153 Q65.54,197.063 65.744,196.891 Q65.947,196.719 66.091,196.469 Q66.236,196.219 66.353,195.898 L66.799,194.648 z" fill="#696969"/>
      <path d="M75.246,193.562 Q75.387,193.562 75.563,193.546 Q75.738,193.531 75.902,193.507 Q76.067,193.484 76.203,193.452 Q76.34,193.421 76.41,193.398 L76.41,194.476 Q76.309,194.523 76.153,194.57 Q75.996,194.617 75.809,194.652 Q75.621,194.687 75.418,194.707 Q75.215,194.726 75.019,194.726 Q74.535,194.726 74.121,194.601 Q73.707,194.476 73.406,194.171 Q73.105,193.867 72.933,193.347 Q72.761,192.827 72.761,192.038 L72.761,187.06 L71.55,187.06 L71.55,186.427 L72.761,185.818 L73.371,184.02 L74.191,184.02 L74.191,185.99 L76.348,185.99 L76.348,187.06 L74.191,187.06 L74.191,192.038 Q74.191,192.796 74.437,193.179 Q74.683,193.562 75.246,193.562 z" fill="#009FE3"/>
      <path d="M81.466,194.726 Q80.607,194.726 79.896,194.437 Q79.185,194.148 78.673,193.593 Q78.161,193.038 77.88,192.218 Q77.598,191.397 77.598,190.342 Q77.598,189.28 77.856,188.443 Q78.114,187.607 78.583,187.025 Q79.052,186.443 79.704,186.138 Q80.357,185.833 81.146,185.833 Q81.92,185.833 82.537,186.111 Q83.154,186.388 83.584,186.892 Q84.014,187.396 84.244,188.103 Q84.475,188.811 84.475,189.67 L84.475,190.553 L79.067,190.553 Q79.106,192.061 79.704,192.773 Q80.302,193.484 81.482,193.484 Q81.881,193.484 82.22,193.445 Q82.56,193.406 82.877,193.331 Q83.193,193.257 83.49,193.144 Q83.787,193.03 84.092,192.89 L84.092,194.156 Q83.779,194.304 83.479,194.414 Q83.178,194.523 82.861,194.593 Q82.545,194.664 82.205,194.695 Q81.865,194.726 81.466,194.726 z M81.115,187.013 Q80.224,187.013 79.704,187.623 Q79.185,188.232 79.099,189.397 L82.943,189.397 Q82.943,188.865 82.838,188.424 Q82.732,187.982 82.51,187.67 Q82.287,187.357 81.943,187.185 Q81.599,187.013 81.115,187.013 z" fill="#009FE3"/>
      <path d="M91.774,192.218 Q91.774,192.843 91.547,193.312 Q91.32,193.781 90.895,194.097 Q90.469,194.414 89.867,194.57 Q89.265,194.726 88.515,194.726 Q87.663,194.726 87.054,194.589 Q86.444,194.453 85.983,194.187 L85.983,192.89 Q86.225,193.015 86.522,193.136 Q86.819,193.257 87.147,193.351 Q87.476,193.445 87.823,193.503 Q88.171,193.562 88.515,193.562 Q89.023,193.562 89.379,193.476 Q89.734,193.39 89.957,193.23 Q90.179,193.07 90.281,192.839 Q90.383,192.608 90.383,192.327 Q90.383,192.085 90.305,191.89 Q90.226,191.694 90.019,191.503 Q89.812,191.311 89.453,191.116 Q89.093,190.921 88.531,190.678 Q87.968,190.436 87.519,190.202 Q87.069,189.967 86.757,189.678 Q86.444,189.389 86.276,189.01 Q86.108,188.631 86.108,188.107 Q86.108,187.56 86.323,187.134 Q86.538,186.709 86.929,186.419 Q87.319,186.13 87.866,185.982 Q88.413,185.833 89.085,185.833 Q89.843,185.833 90.473,185.997 Q91.102,186.162 91.664,186.427 L91.172,187.576 Q90.664,187.349 90.129,187.181 Q89.593,187.013 89.039,187.013 Q88.241,187.013 87.859,187.275 Q87.476,187.537 87.476,188.021 Q87.476,188.295 87.566,188.498 Q87.655,188.701 87.874,188.881 Q88.093,189.061 88.46,189.244 Q88.828,189.428 89.375,189.655 Q89.937,189.889 90.379,190.123 Q90.82,190.358 91.133,190.651 Q91.445,190.944 91.61,191.319 Q91.774,191.694 91.774,192.218 z" fill="#009FE3"/>
      <path d="M96.454,193.562 Q96.595,193.562 96.771,193.546 Q96.947,193.531 97.111,193.507 Q97.275,193.484 97.412,193.452 Q97.549,193.421 97.619,193.398 L97.619,194.476 Q97.517,194.523 97.361,194.57 Q97.205,194.617 97.017,194.652 Q96.83,194.687 96.626,194.707 Q96.423,194.726 96.228,194.726 Q95.743,194.726 95.329,194.601 Q94.915,194.476 94.614,194.171 Q94.313,193.867 94.141,193.347 Q93.969,192.827 93.969,192.038 L93.969,187.06 L92.758,187.06 L92.758,186.427 L93.969,185.818 L94.579,184.02 L95.4,184.02 L95.4,185.99 L97.556,185.99 L97.556,187.06 L95.4,187.06 L95.4,192.038 Q95.4,192.796 95.646,193.179 Q95.892,193.562 96.454,193.562 z" fill="#009FE3"/>
    </g>
    <g id="reverts">
      <path d="M19.637,100.706 L19.637,86.525 L22.015,86.525 L22.247,89.831 L22.334,89.831 Q23.436,88.091 25.017,87.134 Q26.597,86.177 28.511,86.177 Q29.352,86.177 29.99,86.308 Q30.628,86.438 31.295,86.757 L30.657,89.222 Q29.932,88.99 29.41,88.874 Q28.888,88.758 28.076,88.758 Q26.539,88.758 25.118,89.628 Q23.697,90.498 22.508,92.644 L22.508,100.706 z" fill="#DF2815"/>
      <path d="M42.605,101.054 Q40.981,101.054 39.589,100.561 Q38.197,100.068 37.153,99.111 Q36.109,98.154 35.515,96.762 Q34.92,95.37 34.92,93.601 Q34.92,91.861 35.529,90.484 Q36.138,89.106 37.139,88.149 Q38.139,87.192 39.444,86.685 Q40.749,86.177 42.17,86.177 Q43.736,86.177 44.954,86.67 Q46.172,87.163 46.999,88.048 Q47.825,88.932 48.26,90.165 Q48.695,91.397 48.695,92.876 Q48.695,93.34 48.666,93.746 Q48.637,94.152 48.579,94.442 L37.791,94.442 Q38.023,96.646 39.459,97.719 Q40.894,98.792 42.982,98.792 Q44.171,98.792 45.157,98.459 Q46.143,98.125 47.1,97.545 L48.115,99.372 Q47.013,100.097 45.636,100.576 Q44.258,101.054 42.605,101.054 z M42.257,88.439 Q41.445,88.439 40.72,88.686 Q39.995,88.932 39.415,89.425 Q38.835,89.918 38.429,90.643 Q38.023,91.368 37.849,92.325 L46.114,92.325 Q45.969,90.382 44.94,89.411 Q43.91,88.439 42.257,88.439 z" fill="#DF2815"/>
      <path d="M57.569,100.706 L51.769,86.525 L54.669,86.525 L57.656,94.239 Q58.062,95.312 58.425,96.356 Q58.787,97.4 59.164,98.444 L59.28,98.444 Q59.657,97.4 60.005,96.356 Q60.353,95.312 60.759,94.239 L63.746,86.525 L66.501,86.525 L60.817,100.706 z" fill="#DF2815"/>
      <path d="M77.405,101.054 Q75.781,101.054 74.389,100.561 Q72.997,100.068 71.953,99.111 Q70.909,98.154 70.315,96.762 Q69.72,95.37 69.72,93.601 Q69.72,91.861 70.329,90.484 Q70.938,89.106 71.939,88.149 Q72.939,87.192 74.244,86.685 Q75.549,86.177 76.97,86.177 Q78.536,86.177 79.754,86.67 Q80.972,87.163 81.799,88.048 Q82.625,88.932 83.06,90.165 Q83.495,91.397 83.495,92.876 Q83.495,93.34 83.466,93.746 Q83.437,94.152 83.379,94.442 L72.591,94.442 Q72.823,96.646 74.259,97.719 Q75.694,98.792 77.782,98.792 Q78.971,98.792 79.957,98.459 Q80.943,98.125 81.9,97.545 L82.915,99.372 Q81.813,100.097 80.436,100.576 Q79.058,101.054 77.405,101.054 z M77.057,88.439 Q76.245,88.439 75.52,88.686 Q74.795,88.932 74.215,89.425 Q73.635,89.918 73.229,90.643 Q72.823,91.368 72.649,92.325 L80.914,92.325 Q80.769,90.382 79.74,89.411 Q78.71,88.439 77.057,88.439 z" fill="#DF2815"/>
      <path d="M89.237,100.706 L89.237,86.525 L91.615,86.525 L91.847,89.831 L91.934,89.831 Q93.036,88.091 94.617,87.134 Q96.197,86.177 98.111,86.177 Q98.952,86.177 99.59,86.308 Q100.228,86.438 100.895,86.757 L100.257,89.222 Q99.532,88.99 99.01,88.874 Q98.488,88.758 97.676,88.758 Q96.139,88.758 94.718,89.628 Q93.297,90.498 92.108,92.644 L92.108,100.706 z" fill="#DF2815"/>
      <path d="M114.003,101.054 Q112.437,101.054 111.35,100.619 Q110.262,100.184 109.61,99.401 Q108.957,98.618 108.667,97.531 Q108.377,96.443 108.377,95.109 L108.377,88.845 L104.491,88.845 L104.491,86.67 L108.493,86.525 L108.87,82.03 L111.248,82.03 L111.248,86.525 L117.947,86.525 L117.947,88.845 L111.248,88.845 L111.248,95.109 Q111.248,96.936 111.988,97.835 Q112.727,98.734 114.67,98.734 Q115.598,98.734 116.381,98.575 Q117.164,98.415 117.918,98.125 L118.498,100.242 Q117.541,100.561 116.468,100.808 Q115.395,101.054 114.003,101.054 z" fill="#DF2815"/>
      <path d="M128.909,101.054 Q126.879,101.054 125.081,100.402 Q123.283,99.749 121.978,98.85 L123.254,96.994 Q124.501,97.864 125.966,98.357 Q127.43,98.85 129.286,98.85 Q130.939,98.85 131.722,98.285 Q132.505,97.719 132.505,96.907 Q132.505,96.53 132.36,96.211 Q132.215,95.892 131.766,95.617 Q131.316,95.341 130.504,95.08 Q129.692,94.819 128.358,94.529 Q125.545,93.949 124.197,92.949 Q122.848,91.948 122.848,90.324 Q122.848,89.425 123.24,88.671 Q123.631,87.917 124.4,87.366 Q125.168,86.815 126.299,86.496 Q127.43,86.177 128.909,86.177 Q130.591,86.177 132.114,86.743 Q133.636,87.308 134.709,88.033 L133.375,89.831 Q132.36,89.164 131.157,88.773 Q129.953,88.381 128.648,88.381 Q127.024,88.381 126.372,88.903 Q125.719,89.425 125.719,90.179 Q125.719,91.02 126.618,91.455 Q127.517,91.89 129.605,92.325 Q131.345,92.702 132.462,93.137 Q133.578,93.572 134.231,94.094 Q134.883,94.616 135.144,95.269 Q135.405,95.921 135.405,96.733 Q135.405,97.632 134.97,98.415 Q134.535,99.198 133.709,99.793 Q132.882,100.387 131.679,100.721 Q130.475,101.054 128.909,101.054 z" fill="#DF2815"/>
    </g>
    <g id="before">
      <path d="M33.76,71.454 Q32.745,71.454 31.6,70.961 Q30.454,70.468 29.497,69.54 L29.41,69.54 L29.149,71.106 L26.887,71.106 L26.887,50.545 L29.758,50.545 L29.758,55.997 L29.642,58.607 L29.729,58.607 Q30.657,57.679 31.846,57.128 Q33.035,56.577 34.253,56.577 Q35.645,56.577 36.747,57.085 Q37.849,57.592 38.589,58.535 Q39.328,59.477 39.72,60.811 Q40.111,62.145 40.111,63.798 Q40.111,65.625 39.589,67.046 Q39.067,68.467 38.183,69.439 Q37.298,70.41 36.153,70.932 Q35.007,71.454 33.76,71.454 z M33.209,69.076 Q34.891,69.076 36.022,67.728 Q37.153,66.379 37.153,63.827 Q37.153,61.594 36.283,60.289 Q35.413,58.984 33.499,58.984 Q32.629,58.984 31.672,59.434 Q30.715,59.883 29.758,60.898 L29.758,67.597 Q30.657,68.409 31.585,68.743 Q32.513,69.076 33.209,69.076 z" fill="#009FE3"/>
      <path d="M51.305,71.454 Q49.681,71.454 48.289,70.961 Q46.897,70.468 45.853,69.511 Q44.809,68.554 44.215,67.162 Q43.62,65.77 43.62,64.001 Q43.62,62.261 44.229,60.884 Q44.838,59.506 45.839,58.549 Q46.839,57.592 48.144,57.085 Q49.449,56.577 50.87,56.577 Q52.436,56.577 53.654,57.07 Q54.872,57.563 55.699,58.448 Q56.525,59.332 56.96,60.565 Q57.395,61.797 57.395,63.276 Q57.395,63.74 57.366,64.146 Q57.337,64.552 57.279,64.842 L46.491,64.842 Q46.723,67.046 48.159,68.119 Q49.594,69.192 51.682,69.192 Q52.871,69.192 53.857,68.859 Q54.843,68.525 55.8,67.945 L56.815,69.772 Q55.713,70.497 54.336,70.976 Q52.958,71.454 51.305,71.454 z M50.957,58.839 Q50.145,58.839 49.42,59.086 Q48.695,59.332 48.115,59.825 Q47.535,60.318 47.129,61.043 Q46.723,61.768 46.549,62.725 L54.814,62.725 Q54.669,60.782 53.64,59.811 Q52.61,58.839 50.957,58.839 z" fill="#009FE3"/>
      <path d="M65.95,71.106 L65.95,59.245 L61.977,59.245 L61.977,57.07 L65.95,56.925 L65.95,55.939 Q65.95,54.663 66.298,53.605 Q66.646,52.546 67.371,51.792 Q68.096,51.038 69.198,50.618 Q70.3,50.197 71.808,50.197 Q73.925,50.197 75.955,51.009 L75.317,53.126 Q74.505,52.778 73.766,52.633 Q73.026,52.488 72.127,52.488 Q70.358,52.488 69.575,53.373 Q68.792,54.257 68.792,55.881 L68.792,56.925 L74.447,56.925 L74.447,59.245 L68.792,59.245 L68.792,71.106 z" fill="#009FE3"/>
      <path d="M85.235,71.454 Q83.843,71.454 82.567,70.961 Q81.291,70.468 80.305,69.511 Q79.319,68.554 78.739,67.177 Q78.159,65.799 78.159,64.03 Q78.159,62.261 78.739,60.869 Q79.319,59.477 80.305,58.52 Q81.291,57.563 82.567,57.07 Q83.843,56.577 85.235,56.577 Q86.627,56.577 87.903,57.07 Q89.179,57.563 90.165,58.52 Q91.151,59.477 91.731,60.869 Q92.311,62.261 92.311,64.03 Q92.311,65.799 91.731,67.177 Q91.151,68.554 90.165,69.511 Q89.179,70.468 87.903,70.961 Q86.627,71.454 85.235,71.454 z M85.235,69.105 Q87.149,69.105 88.251,67.713 Q89.353,66.321 89.353,64.03 Q89.353,61.739 88.251,60.347 Q87.149,58.955 85.235,58.955 Q83.321,58.955 82.219,60.347 Q81.117,61.739 81.117,64.03 Q81.117,66.321 82.219,67.713 Q83.321,69.105 85.235,69.105 z" fill="#009FE3"/>
      <path d="M97.937,71.106 L97.937,56.925 L100.315,56.925 L100.547,60.231 L100.634,60.231 Q101.736,58.491 103.317,57.534 Q104.897,56.577 106.811,56.577 Q107.652,56.577 108.29,56.708 Q108.928,56.838 109.595,57.157 L108.957,59.622 Q108.232,59.39 107.71,59.274 Q107.188,59.158 106.376,59.158 Q104.839,59.158 103.418,60.028 Q101.997,60.898 100.808,63.044 L100.808,71.106 z" fill="#009FE3"/>
      <path d="M120.905,71.454 Q119.281,71.454 117.889,70.961 Q116.497,70.468 115.453,69.511 Q114.409,68.554 113.815,67.162 Q113.22,65.77 113.22,64.001 Q113.22,62.261 113.829,60.884 Q114.438,59.506 115.439,58.549 Q116.439,57.592 117.744,57.085 Q119.049,56.577 120.47,56.577 Q122.036,56.577 123.254,57.07 Q124.472,57.563 125.299,58.448 Q126.125,59.332 126.56,60.565 Q126.995,61.797 126.995,63.276 Q126.995,63.74 126.966,64.146 Q126.937,64.552 126.879,64.842 L116.091,64.842 Q116.323,67.046 117.759,68.119 Q119.194,69.192 121.282,69.192 Q122.471,69.192 123.457,68.859 Q124.443,68.525 125.4,67.945 L126.415,69.772 Q125.313,70.497 123.936,70.976 Q122.558,71.454 120.905,71.454 z M120.557,58.839 Q119.745,58.839 119.02,59.086 Q118.295,59.332 117.715,59.825 Q117.135,60.318 116.729,61.043 Q116.323,61.768 116.149,62.725 L124.414,62.725 Q124.269,60.782 123.24,59.811 Q122.21,58.839 120.557,58.839 z" fill="#009FE3"/>
    </g>
    <g id="asserts">
      <path d="M22.624,41.854 Q21.609,41.854 20.725,41.564 Q19.84,41.274 19.202,40.738 Q18.564,40.201 18.202,39.447 Q17.839,38.693 17.839,37.765 Q17.839,36.576 18.405,35.677 Q18.97,34.778 20.174,34.14 Q21.377,33.502 23.277,33.096 Q25.176,32.69 27.844,32.487 Q27.786,31.182 26.989,30.254 Q26.191,29.326 24.306,29.326 Q23.001,29.326 21.769,29.819 Q20.536,30.312 19.492,30.921 L18.419,28.978 Q18.999,28.63 19.724,28.268 Q20.449,27.905 21.276,27.615 Q22.102,27.325 22.987,27.151 Q23.871,26.977 24.799,26.977 Q27.757,26.977 29.236,28.572 Q30.715,30.167 30.715,32.98 L30.715,41.506 L28.366,41.506 L28.134,39.679 L28.047,39.679 Q26.916,40.549 25.51,41.202 Q24.103,41.854 22.624,41.854 z M23.436,39.563 Q24.567,39.563 25.655,39.07 Q26.742,38.577 27.844,37.678 L27.844,34.314 Q25.756,34.488 24.364,34.764 Q22.972,35.039 22.146,35.46 Q21.319,35.88 20.971,36.402 Q20.623,36.924 20.623,37.562 Q20.623,38.635 21.45,39.099 Q22.276,39.563 23.436,39.563 z" fill="#C7D302"/>
      <path d="M41.909,41.854 Q39.879,41.854 38.081,41.202 Q36.283,40.549 34.978,39.65 L36.254,37.794 Q37.501,38.664 38.966,39.157 Q40.43,39.65 42.286,39.65 Q43.939,39.65 44.722,39.085 Q45.505,38.519 45.505,37.707 Q45.505,37.33 45.36,37.011 Q45.215,36.692 44.766,36.417 Q44.316,36.141 43.504,35.88 Q42.692,35.619 41.358,35.329 Q38.545,34.749 37.197,33.749 Q35.848,32.748 35.848,31.124 Q35.848,30.225 36.24,29.471 Q36.631,28.717 37.4,28.166 Q38.168,27.615 39.299,27.296 Q40.43,26.977 41.909,26.977 Q43.591,26.977 45.114,27.543 Q46.636,28.108 47.709,28.833 L46.375,30.631 Q45.36,29.964 44.157,29.573 Q42.953,29.181 41.648,29.181 Q40.024,29.181 39.372,29.703 Q38.719,30.225 38.719,30.979 Q38.719,31.82 39.618,32.255 Q40.517,32.69 42.605,33.125 Q44.345,33.502 45.462,33.937 Q46.578,34.372 47.231,34.894 Q47.883,35.416 48.144,36.069 Q48.405,36.721 48.405,37.533 Q48.405,38.432 47.97,39.215 Q47.535,39.998 46.709,40.593 Q45.882,41.187 44.679,41.521 Q43.475,41.854 41.909,41.854 z" fill="#C7D302"/>
      <path d="M59.309,41.854 Q57.279,41.854 55.481,41.202 Q53.683,40.549 52.378,39.65 L53.654,37.794 Q54.901,38.664 56.366,39.157 Q57.83,39.65 59.686,39.65 Q61.339,39.65 62.122,39.085 Q62.905,38.519 62.905,37.707 Q62.905,37.33 62.76,37.011 Q62.615,36.692 62.166,36.417 Q61.716,36.141 60.904,35.88 Q60.092,35.619 58.758,35.329 Q55.945,34.749 54.597,33.749 Q53.248,32.748 53.248,31.124 Q53.248,30.225 53.64,29.471 Q54.031,28.717 54.8,28.166 Q55.568,27.615 56.699,27.296 Q57.83,26.977 59.309,26.977 Q60.991,26.977 62.514,27.543 Q64.036,28.108 65.109,28.833 L63.775,30.631 Q62.76,29.964 61.557,29.573 Q60.353,29.181 59.048,29.181 Q57.424,29.181 56.772,29.703 Q56.119,30.225 56.119,30.979 Q56.119,31.82 57.018,32.255 Q57.917,32.69 60.005,33.125 Q61.745,33.502 62.862,33.937 Q63.978,34.372 64.631,34.894 Q65.283,35.416 65.544,36.069 Q65.805,36.721 65.805,37.533 Q65.805,38.432 65.37,39.215 Q64.935,39.998 64.109,40.593 Q63.282,41.187 62.079,41.521 Q60.875,41.854 59.309,41.854 z" fill="#C7D302"/>
      <path d="M77.405,41.854 Q75.781,41.854 74.389,41.361 Q72.997,40.868 71.953,39.911 Q70.909,38.954 70.315,37.562 Q69.72,36.17 69.72,34.401 Q69.72,32.661 70.329,31.284 Q70.938,29.906 71.939,28.949 Q72.939,27.992 74.244,27.485 Q75.549,26.977 76.97,26.977 Q78.536,26.977 79.754,27.47 Q80.972,27.963 81.799,28.848 Q82.625,29.732 83.06,30.965 Q83.495,32.197 83.495,33.676 Q83.495,34.14 83.466,34.546 Q83.437,34.952 83.379,35.242 L72.591,35.242 Q72.823,37.446 74.259,38.519 Q75.694,39.592 77.782,39.592 Q78.971,39.592 79.957,39.259 Q80.943,38.925 81.9,38.345 L82.915,40.172 Q81.813,40.897 80.436,41.376 Q79.058,41.854 77.405,41.854 z M77.057,29.239 Q76.245,29.239 75.52,29.486 Q74.795,29.732 74.215,30.225 Q73.635,30.718 73.229,31.443 Q72.823,32.168 72.649,33.125 L80.914,33.125 Q80.769,31.182 79.74,30.211 Q78.71,29.239 77.057,29.239 z" fill="#C7D302"/>
      <path d="M89.237,41.506 L89.237,27.325 L91.615,27.325 L91.847,30.631 L91.934,30.631 Q93.036,28.891 94.617,27.934 Q96.197,26.977 98.111,26.977 Q98.952,26.977 99.59,27.108 Q100.228,27.238 100.895,27.557 L100.257,30.022 Q99.532,29.79 99.01,29.674 Q98.488,29.558 97.676,29.558 Q96.139,29.558 94.718,30.428 Q93.297,31.298 92.108,33.444 L92.108,41.506 z" fill="#C7D302"/>
      <path d="M114.003,41.854 Q112.437,41.854 111.35,41.419 Q110.262,40.984 109.61,40.201 Q108.957,39.418 108.667,38.331 Q108.377,37.243 108.377,35.909 L108.377,29.645 L104.491,29.645 L104.491,27.47 L108.493,27.325 L108.87,22.83 L111.248,22.83 L111.248,27.325 L117.947,27.325 L117.947,29.645 L111.248,29.645 L111.248,35.909 Q111.248,37.736 111.988,38.635 Q112.727,39.534 114.67,39.534 Q115.598,39.534 116.381,39.375 Q117.164,39.215 117.918,38.925 L118.498,41.042 Q117.541,41.361 116.468,41.608 Q115.395,41.854 114.003,41.854 z" fill="#C7D302"/>
      <path d="M128.909,41.854 Q126.879,41.854 125.081,41.202 Q123.283,40.549 121.978,39.65 L123.254,37.794 Q124.501,38.664 125.966,39.157 Q127.43,39.65 129.286,39.65 Q130.939,39.65 131.722,39.085 Q132.505,38.519 132.505,37.707 Q132.505,37.33 132.36,37.011 Q132.215,36.692 131.766,36.417 Q131.316,36.141 130.504,35.88 Q129.692,35.619 128.358,35.329 Q125.545,34.749 124.197,33.749 Q122.848,32.748 122.848,31.124 Q122.848,30.225 123.24,29.471 Q123.631,28.717 124.4,28.166 Q125.168,27.615 126.299,27.296 Q127.43,26.977 128.909,26.977 Q130.591,26.977 132.114,27.543 Q133.636,28.108 134.709,28.833 L133.375,30.631 Q132.36,29.964 131.157,29.573 Q129.953,29.181 128.648,29.181 Q127.024,29.181 126.372,29.703 Q125.719,30.225 125.719,30.979 Q125.719,31.82 126.618,32.255 Q127.517,32.69 129.605,33.125 Q131.345,33.502 132.462,33.937 Q133.578,34.372 134.231,34.894 Q134.883,35.416 135.144,36.069 Q135.405,36.721 135.405,37.533 Q135.405,38.432 134.97,39.215 Q134.535,39.998 133.709,40.593 Q132.882,41.187 131.679,41.521 Q130.475,41.854 128.909,41.854 z" fill="#C7D302"/>
    </g>
  </g>
</svg>
