<?xml version="1.0" encoding="UTF-8"?>
<!DOCTYPE svg PUBLIC "-//W3C//DTD SVG 1.1//EN" "http://www.w3.org/Graphics/SVG/1.1/DTD/svg11.dtd">
<svg version="1.1" xmlns="http://www.w3.org/2000/svg" xmlns:xlink="http://www.w3.org/1999/xlink" x="0" y="0" width="153.071" height="215.433" viewBox="0, 0, 153.071, 215.433">
  <g id="bg">
    <path d="M0,-0 L153.071,-0 L153.071,215.433 L0,215.433 L0,-0 z" fill="#FFFFFF"/>
  </g>
  <g id="all">
    <g id="pytest-logo">
      <path d="M55.076,130.603 L97.995,130.603 C99.157,130.603 100.099,131.545 100.099,132.707 L100.099,132.707 C100.099,133.869 99.157,134.81 97.995,134.81 L55.076,134.81 C53.914,134.81 52.972,133.869 52.972,132.707 L52.972,132.707 C52.972,131.545 53.914,130.603 55.076,130.603 z" fill="#696969" id="horizontal_bar"/>
      <g id="top_bars">
        <path d="M55.45,126.347 L64.079,126.347 L64.079,128.338 L55.45,128.338 L55.45,126.347 z" fill="#009FE3"/>
        <path d="M66.735,126.347 L75.364,126.347 L75.364,128.338 L66.735,128.338 L66.735,126.347 z" fill="#C7D302"/>
        <path d="M77.87,126.347 L86.5,126.347 L86.5,128.338 L77.87,128.338 L77.87,126.347 z" fill="#F07E16"/>
        <path d="M88.958,126.347 L97.588,126.347 L97.588,128.338 L88.958,128.338 L88.958,126.347 z" fill="#DF2815"/>
      </g>
      <g id="bottom_bars">
        <path d="M88.958,137.001 L97.588,137.001 L97.588,151.588 L88.958,151.588 L88.958,137.001 z" fill="#DF2815"/>
        <path d="M77.87,137.001 L86.516,137.001 L86.516,160.699 L77.87,160.699 L77.87,137.001 z" fill="#F07E16"/>
        <path d="M66.735,137.001 L75.364,137.001 L75.364,172.498 L66.735,172.498 L66.735,137.001 z" fill="#C7D302"/>
        <path d="M55.45,137.001 L64.079,137.001 L64.079,180.265 L55.45,180.265 L55.45,137.001 z" fill="#009FE3"/>
      </g>
    </g>
    <g id="pytest">
      <path d="M59.328,194.726 Q58.867,194.726 58.492,194.625 Q58.117,194.523 57.816,194.355 Q57.515,194.187 57.285,193.96 Q57.054,193.734 56.874,193.484 L56.78,193.484 Q56.804,193.749 56.827,193.992 Q56.843,194.195 56.859,194.41 Q56.874,194.625 56.874,194.75 L56.874,198.415 L55.452,198.415 L55.452,185.99 L56.609,185.99 L56.812,187.146 L56.874,187.146 Q57.054,186.873 57.281,186.634 Q57.507,186.396 57.808,186.22 Q58.109,186.044 58.484,185.939 Q58.859,185.833 59.328,185.833 Q60.063,185.833 60.664,186.115 Q61.266,186.396 61.692,186.955 Q62.118,187.513 62.352,188.342 Q62.587,189.17 62.587,190.264 Q62.587,191.366 62.352,192.198 Q62.118,193.03 61.692,193.593 Q61.266,194.156 60.664,194.441 Q60.063,194.726 59.328,194.726 z M59.054,187.013 Q58.461,187.013 58.05,187.193 Q57.64,187.373 57.386,187.74 Q57.132,188.107 57.011,188.654 Q56.89,189.201 56.874,189.944 L56.874,190.264 Q56.874,191.053 56.98,191.667 Q57.085,192.28 57.339,192.698 Q57.593,193.116 58.015,193.331 Q58.437,193.546 59.07,193.546 Q60.125,193.546 60.621,192.694 Q61.118,191.843 61.118,190.249 Q61.118,188.623 60.621,187.818 Q60.125,187.013 59.054,187.013 z" fill="#696969"/>
      <path d="M63.548,185.99 L65.025,185.99 L66.705,190.78 Q66.814,191.092 66.928,191.436 Q67.041,191.78 67.139,192.124 Q67.236,192.468 67.307,192.788 Q67.377,193.109 67.408,193.382 L67.455,193.382 Q67.494,193.187 67.58,192.851 Q67.666,192.515 67.772,192.136 Q67.877,191.757 67.99,191.389 Q68.104,191.022 68.19,190.764 L69.745,185.99 L71.214,185.99 L67.822,195.687 Q67.604,196.32 67.35,196.824 Q67.096,197.328 66.76,197.68 Q66.424,198.032 65.97,198.223 Q65.517,198.415 64.892,198.415 Q64.486,198.415 64.189,198.372 Q63.892,198.329 63.681,198.282 L63.681,197.149 Q63.845,197.188 64.095,197.215 Q64.345,197.242 64.618,197.242 Q64.993,197.242 65.267,197.153 Q65.54,197.063 65.744,196.891 Q65.947,196.719 66.091,196.469 Q66.236,196.219 66.353,195.898 L66.799,194.648 z" fill="#696969"/>
      <path d="M75.246,193.562 Q75.387,193.562 75.563,193.546 Q75.738,193.531 75.902,193.507 Q76.067,193.484 76.203,193.452 Q76.34,193.421 76.41,193.398 L76.41,194.476 Q76.309,194.523 76.153,194.57 Q75.996,194.617 75.809,194.652 Q75.621,194.687 75.418,194.707 Q75.215,194.726 75.019,194.726 Q74.535,194.726 74.121,194.601 Q73.707,194.476 73.406,194.171 Q73.105,193.867 72.933,193.347 Q72.761,192.827 72.761,192.038 L72.761,187.06 L71.55,187.06 L71.55,186.427 L72.761,185.818 L73.371,184.02 L74.191,184.02 L74.191,185.99 L76.348,185.99 L76.348,187.06 L74.191,187.06 L74.191,192.038 Q74.191,192.796 74.437,193.179 Q74.683,193.562 75.246,193.562 z" fill="#009FE3"/>
      <path d="M81.466,194.726 Q80.607,194.726 79.896,194.437 Q79.185,194.148 78.673,193.593 Q78.161,193.038 77.88,192.218 Q77.598,191.397 77.598,190.342 Q77.598,189.28 77.856,188.443 Q78.114,187.607 78.583,187.025 Q79.052,186.443 79.704,186.138 Q80.357,185.833 81.146,185.833 Q81.92,185.833 82.537,186.111 Q83.154,186.388 83.584,186.892 Q84.014,187.396 84.244,188.103 Q84.475,188.811 84.475,189.67 L84.475,190.553 L79.067,190.553 Q79.106,192.061 79.704,192.773 Q80.302,193.484 81.482,193.484 Q81.881,193.484 82.22,193.445 Q82.56,193.406 82.877,193.331 Q83.193,193.257 83.49,193.144 Q83.787,193.03 84.092,192.89 L84.092,194.156 Q83.779,194.304 83.479,194.414 Q83.178,194.523 82.861,194.593 Q82.545,194.664 82.205,194.695 Q81.865,194.726 81.466,194.726 z M81.115,187.013 Q80.224,187.013 79.704,187.623 Q79.185,188.232 79.099,189.397 L82.943,189.397 Q82.943,188.865 82.838,188.424 Q82.732,187.982 82.51,187.67 Q82.287,187.357 81.943,187.185 Q81.599,187.013 81.115,187.013 z" fill="#009FE3"/>
      <path d="M91.774,192.218 Q91.774,192.843 91.547,193.312 Q91.32,193.781 90.895,194.097 Q90.469,194.414 89.867,194.57 Q89.265,194.726 88.515,194.726 Q87.663,194.726 87.054,194.589 Q86.444,194.453 85.983,194.187 L85.983,192.89 Q86.225,193.015 86.522,193.136 Q86.819,193.257 87.147,193.351 Q87.476,193.445 87.823,193.503 Q88.171,193.562 88.515,193.562 Q89.023,193.562 89.379,193.476 Q89.734,193.39 89.957,193.23 Q90.179,193.07 90.281,192.839 Q90.383,192.608 90.383,192.327 Q90.383,192.085 90.305,191.89 Q90.226,191.694 90.019,191.503 Q89.812,191.311 89.453,191.116 Q89.093,190.921 88.531,190.678 Q87.968,190.436 87.519,190.202 Q87.069,189.967 86.757,189.678 Q86.444,189.389 86.276,189.01 Q86.108,188.631 86.108,188.107 Q86.108,187.56 86.323,187.134 Q86.538,186.709 86.929,186.419 Q87.319,186.13 87.866,185.982 Q88.413,185.833 89.085,185.833 Q89.843,185.833 90.473,185.997 Q91.102,186.162 91.664,186.427 L91.172,187.576 Q90.664,187.349 90.129,187.181 Q89.593,187.013 89.039,187.013 Q88.241,187.013 87.859,187.275 Q87.476,187.537 87.476,188.021 Q87.476,188.295 87.566,188.498 Q87.655,188.701 87.874,188.881 Q88.093,189.061 88.46,189.244 Q88.828,189.428 89.375,189.655 Q89.937,189.889 90.379,190.123 Q90.82,190.358 91.133,190.651 Q91.445,190.944 91.61,191.319 Q91.774,191.694 91.774,192.218 z" fill="#009FE3"/>
      <path d="M96.454,193.562 Q96.595,193.562 96.771,193.546 Q96.947,193.531 97.111,193.507 Q97.275,193.484 97.412,193.452 Q97.549,193.421 97.619,193.398 L97.619,194.476 Q97.517,194.523 97.361,194.57 Q97.205,194.617 97.017,194.652 Q96.83,194.687 96.626,194.707 Q96.423,194.726 96.228,194.726 Q95.743,194.726 95.329,194.601 Q94.915,194.476 94.614,194.171 Q94.313,193.867 94.141,193.347 Q93.969,192.827 93.969,192.038 L93.969,187.06 L92.758,187.06 L92.758,186.427 L93.969,185.818 L94.579,184.02 L95.4,184.02 L95.4,185.99 L97.556,185.99 L97.556,187.06 L95.4,187.06 L95.4,192.038 Q95.4,192.796 95.646,193.179 Q95.892,193.562 96.454,193.562 z" fill="#009FE3"/>
    </g>
    <text transform="matrix(1, 0, 0, 1, 76.535, 57.616)">
      <tspan x="-60.9" y="-16.109" font-family="SourceCodePro-Medium" font-size="29" fill="#C7D302">asserts</tspan>
      <tspan x="-52.2" y="13.491" font-family="SourceCodePro-Medium" font-size="29" fill="#009FE3">before</tspan>
      <tspan x="-60.9" y="43.091" font-family="SourceCodePro-Medium" font-size="29" fill="#DF2815">reverts</tspan>
    </text>
  </g>
</svg>
